<svg width="677" height="539" viewBox="0 0 677 539" fill="none" xmlns="http://www.w3.org/2000/svg">
<path d="M145.308 337.184H77.3403L67.2603 368H0.15625L74.7483 164.096H148.476L222.78 368H155.388L145.308 337.184ZM129.756 289.088L111.324 232.352L92.8923 289.088H129.756ZM482.394 164.096V368H418.746V266.336L387.354 368H332.634L301.242 266.336V368H237.306V164.096H315.642L360.57 286.496L404.346 164.096H482.394ZM591.02 370.016C566.636 370.016 546.476 364.352 530.54 353.024C514.796 341.504 506.252 324.704 504.908 302.624H572.876C573.836 314.336 579.02 320.192 588.428 320.192C591.884 320.192 594.764 319.424 597.068 317.888C599.564 316.16 600.812 313.568 600.812 310.112C600.812 305.312 598.22 301.472 593.036 298.592C587.852 295.52 579.788 292.064 568.844 288.224C555.788 283.616 544.94 279.104 536.3 274.688C527.852 270.272 520.556 263.84 514.412 255.392C508.268 246.944 505.292 236.096 505.484 222.848C505.484 209.6 508.844 198.368 515.564 189.152C522.476 179.744 531.788 172.64 543.5 167.84C555.404 163.04 568.748 160.64 583.532 160.64C608.492 160.64 628.268 166.4 642.86 177.92C657.644 189.44 665.42 205.664 666.188 226.592H597.356C597.164 220.832 595.724 216.704 593.036 214.208C590.348 211.712 587.084 210.464 583.244 210.464C580.556 210.464 578.348 211.424 576.62 213.344C574.892 215.072 574.028 217.568 574.028 220.832C574.028 225.44 576.524 229.28 581.516 232.352C586.7 235.232 594.86 238.784 605.996 243.008C618.86 247.808 629.42 252.416 637.676 256.832C646.124 261.248 653.42 267.392 659.564 275.264C665.708 283.136 668.78 293.024 668.78 304.928C668.78 317.408 665.708 328.64 659.564 338.624C653.42 348.416 644.492 356.096 632.78 361.664C621.068 367.232 607.148 370.016 591.02 370.016Z" fill="black"/>
<path d="M361 228L324.5 114.5L361 184L437 4.5L361 228Z" stroke="url(#paint0_linear)" stroke-width="20"/>
<path d="M22.2204 411.934H13.2524L11.9224 416H3.06836L12.9104 389.096H22.6384L32.4424 416H23.5504L22.2204 411.934ZM20.1684 405.588L17.7364 398.102L15.3044 405.588H20.1684ZM47.697 408.818V416H44.505C38.6277 416 35.689 413.074 35.689 407.222V401.598H33.029V394.568H35.689V389.4H44.125V394.568H47.621V401.598H44.125V407.374C44.125 407.881 44.239 408.248 44.467 408.476C44.7203 408.704 45.1257 408.818 45.683 408.818H47.697ZM64.2478 408.818V416H61.0558C55.1784 416 52.2398 413.074 52.2398 407.222V401.598H49.5798V394.568H52.2398V389.4H60.6758V394.568H64.1718V401.598H60.6758V407.374C60.6758 407.881 60.7898 408.248 61.0178 408.476C61.2711 408.704 61.6764 408.818 62.2338 408.818H64.2478ZM88.2085 405.094C88.2085 405.677 88.1705 406.234 88.0945 406.766H74.5285C74.6552 408.615 75.4279 409.54 76.8465 409.54C77.7585 409.54 78.4172 409.122 78.8225 408.286H87.7525C87.4485 409.806 86.8025 411.174 85.8145 412.39C84.8519 413.581 83.6232 414.531 82.1285 415.24C80.6592 415.924 79.0379 416.266 77.2645 416.266C75.1365 416.266 73.2365 415.823 71.5645 414.936C69.9179 414.049 68.6259 412.783 67.6885 411.136C66.7765 409.464 66.3205 407.513 66.3205 405.284C66.3205 403.055 66.7765 401.117 67.6885 399.47C68.6259 397.798 69.9179 396.519 71.5645 395.632C73.2365 394.745 75.1365 394.302 77.2645 394.302C79.3925 394.302 81.2799 394.745 82.9265 395.632C84.5985 396.493 85.8905 397.735 86.8025 399.356C87.7399 400.977 88.2085 402.89 88.2085 405.094ZM79.6585 403.08C79.6585 402.371 79.4305 401.839 78.9745 401.484C78.5185 401.104 77.9485 400.914 77.2645 400.914C75.7699 400.914 74.8959 401.636 74.6425 403.08H79.6585ZM105.887 394.416C108.344 394.416 110.257 395.239 111.625 396.886C113.018 398.533 113.715 400.762 113.715 403.574V416H105.317V404.638C105.317 403.625 105.038 402.827 104.481 402.244C103.949 401.636 103.227 401.332 102.315 401.332C101.377 401.332 100.643 401.636 100.111 402.244C99.5786 402.827 99.3126 403.625 99.3126 404.638V416H90.8766V394.568H99.3126V397.836C99.9712 396.823 100.845 395.999 101.935 395.366C103.049 394.733 104.367 394.416 105.887 394.416ZM116.233 405.284C116.233 403.029 116.613 401.079 117.373 399.432C118.158 397.76 119.222 396.493 120.565 395.632C121.907 394.745 123.415 394.302 125.087 394.302C126.48 394.302 127.671 394.593 128.659 395.176C129.672 395.733 130.445 396.506 130.977 397.494V387.88H139.413V416H130.977V413.074C130.445 414.062 129.672 414.847 128.659 415.43C127.671 415.987 126.48 416.266 125.087 416.266C123.415 416.266 121.907 415.835 120.565 414.974C119.222 414.087 118.158 412.821 117.373 411.174C116.613 409.502 116.233 407.539 116.233 405.284ZM131.015 405.284C131.015 404.144 130.723 403.257 130.141 402.624C129.558 401.991 128.811 401.674 127.899 401.674C126.987 401.674 126.239 401.991 125.657 402.624C125.074 403.257 124.783 404.144 124.783 405.284C124.783 406.424 125.074 407.311 125.657 407.944C126.239 408.577 126.987 408.894 127.899 408.894C128.811 408.894 129.558 408.577 130.141 407.944C130.723 407.311 131.015 406.424 131.015 405.284ZM163.949 405.094C163.949 405.677 163.911 406.234 163.835 406.766H150.269C150.395 408.615 151.168 409.54 152.587 409.54C153.499 409.54 154.157 409.122 154.563 408.286H163.493C163.189 409.806 162.543 411.174 161.555 412.39C160.592 413.581 159.363 414.531 157.869 415.24C156.399 415.924 154.778 416.266 153.005 416.266C150.877 416.266 148.977 415.823 147.305 414.936C145.658 414.049 144.366 412.783 143.429 411.136C142.517 409.464 142.061 407.513 142.061 405.284C142.061 403.055 142.517 401.117 143.429 399.47C144.366 397.798 145.658 396.519 147.305 395.632C148.977 394.745 150.877 394.302 153.005 394.302C155.133 394.302 157.02 394.745 158.667 395.632C160.339 396.493 161.631 397.735 162.543 399.356C163.48 400.977 163.949 402.89 163.949 405.094ZM155.399 403.08C155.399 402.371 155.171 401.839 154.715 401.484C154.259 401.104 153.689 400.914 153.005 400.914C151.51 400.914 150.636 401.636 150.383 403.08H155.399ZM181.627 394.416C184.084 394.416 185.997 395.239 187.365 396.886C188.758 398.533 189.455 400.762 189.455 403.574V416H181.057V404.638C181.057 403.625 180.778 402.827 180.221 402.244C179.689 401.636 178.967 401.332 178.055 401.332C177.117 401.332 176.383 401.636 175.851 402.244C175.319 402.827 175.053 403.625 175.053 404.638V416H166.617V394.568H175.053V397.836C175.711 396.823 176.585 395.999 177.675 395.366C178.789 394.733 180.107 394.416 181.627 394.416ZM191.973 405.284C191.973 403.055 192.429 401.117 193.341 399.47C194.278 397.798 195.57 396.519 197.217 395.632C198.889 394.745 200.789 394.302 202.917 394.302C205.704 394.302 208.047 395.087 209.947 396.658C211.872 398.229 213.088 400.407 213.595 403.194H204.665C204.336 402.079 203.69 401.522 202.727 401.522C202.043 401.522 201.498 401.839 201.093 402.472C200.713 403.105 200.523 404.043 200.523 405.284C200.523 406.525 200.713 407.463 201.093 408.096C201.498 408.729 202.043 409.046 202.727 409.046C203.69 409.046 204.336 408.489 204.665 407.374H213.595C213.088 410.161 211.872 412.339 209.947 413.91C208.047 415.481 205.704 416.266 202.917 416.266C200.789 416.266 198.889 415.823 197.217 414.936C195.57 414.049 194.278 412.783 193.341 411.136C192.429 409.464 191.973 407.513 191.973 405.284ZM237.017 405.094C237.017 405.677 236.979 406.234 236.903 406.766H223.337C223.464 408.615 224.236 409.54 225.655 409.54C226.567 409.54 227.226 409.122 227.631 408.286H236.561C236.257 409.806 235.611 411.174 234.623 412.39C233.66 413.581 232.432 414.531 230.937 415.24C229.468 415.924 227.846 416.266 226.073 416.266C223.945 416.266 222.045 415.823 220.373 414.936C218.726 414.049 217.434 412.783 216.497 411.136C215.585 409.464 215.129 407.513 215.129 405.284C215.129 403.055 215.585 401.117 216.497 399.47C217.434 397.798 218.726 396.519 220.373 395.632C222.045 394.745 223.945 394.302 226.073 394.302C228.201 394.302 230.088 394.745 231.735 395.632C233.407 396.493 234.699 397.735 235.611 399.356C236.548 400.977 237.017 402.89 237.017 405.094ZM228.467 403.08C228.467 402.371 228.239 401.839 227.783 401.484C227.327 401.104 226.757 400.914 226.073 400.914C224.578 400.914 223.704 401.636 223.451 403.08H228.467ZM278.48 389.096V416H270.082V402.586L265.94 416H258.72L254.578 402.586V416H246.142V389.096H256.478L262.406 405.246L268.182 389.096H278.48ZM281.147 405.284C281.147 403.029 281.527 401.079 282.287 399.432C283.072 397.76 284.136 396.493 285.479 395.632C286.821 394.745 288.329 394.302 290.001 394.302C291.394 394.302 292.597 394.593 293.611 395.176C294.624 395.733 295.397 396.506 295.929 397.494V394.568H304.327V416H295.929V413.074C295.397 414.062 294.624 414.847 293.611 415.43C292.597 415.987 291.394 416.266 290.001 416.266C288.329 416.266 286.821 415.835 285.479 414.974C284.136 414.087 283.072 412.821 282.287 411.174C281.527 409.502 281.147 407.539 281.147 405.284ZM295.929 405.284C295.929 404.144 295.637 403.257 295.055 402.624C294.472 401.991 293.725 401.674 292.813 401.674C291.901 401.674 291.153 401.991 290.571 402.624C289.988 403.257 289.697 404.144 289.697 405.284C289.697 406.424 289.988 407.311 290.571 407.944C291.153 408.577 291.901 408.894 292.813 408.894C293.725 408.894 294.472 408.577 295.055 407.944C295.637 407.311 295.929 406.424 295.929 405.284ZM323.125 394.416C325.582 394.416 327.495 395.239 328.863 396.886C330.256 398.533 330.953 400.762 330.953 403.574V416H322.555V404.638C322.555 403.625 322.276 402.827 321.719 402.244C321.187 401.636 320.465 401.332 319.553 401.332C318.616 401.332 317.881 401.636 317.349 402.244C316.817 402.827 316.551 403.625 316.551 404.638V416H308.115V394.568H316.551V397.836C317.21 396.823 318.084 395.999 319.173 395.366C320.288 394.733 321.605 394.416 323.125 394.416ZM333.471 405.284C333.471 403.029 333.851 401.079 334.611 399.432C335.396 397.76 336.46 396.493 337.803 395.632C339.146 394.745 340.653 394.302 342.325 394.302C343.718 394.302 344.922 394.593 345.935 395.176C346.948 395.733 347.721 396.506 348.253 397.494V394.568H356.651V416H348.253V413.074C347.721 414.062 346.948 414.847 345.935 415.43C344.922 415.987 343.718 416.266 342.325 416.266C340.653 416.266 339.146 415.835 337.803 414.974C336.46 414.087 335.396 412.821 334.611 411.174C333.851 409.502 333.471 407.539 333.471 405.284ZM348.253 405.284C348.253 404.144 347.962 403.257 347.379 402.624C346.796 401.991 346.049 401.674 345.137 401.674C344.225 401.674 343.478 401.991 342.895 402.624C342.312 403.257 342.021 404.144 342.021 405.284C342.021 406.424 342.312 407.311 342.895 407.944C343.478 408.577 344.225 408.894 345.137 408.894C346.049 408.894 346.796 408.577 347.379 407.944C347.962 407.311 348.253 406.424 348.253 405.284ZM368.153 394.302C369.546 394.302 370.75 394.593 371.763 395.176C372.776 395.733 373.549 396.506 374.081 397.494V394.568H382.479V415.62C382.479 417.621 382.112 419.445 381.377 421.092C380.642 422.739 379.452 424.056 377.805 425.044C376.184 426.032 374.094 426.526 371.535 426.526C368.09 426.526 365.354 425.715 363.327 424.094C361.326 422.498 360.186 420.319 359.907 417.558H368.191C368.419 418.673 369.331 419.23 370.927 419.23C371.915 419.23 372.688 418.977 373.245 418.47C373.802 417.963 374.081 417.013 374.081 415.62V413.074C373.549 414.062 372.776 414.847 371.763 415.43C370.75 415.987 369.546 416.266 368.153 416.266C366.481 416.266 364.974 415.835 363.631 414.974C362.288 414.087 361.224 412.821 360.439 411.174C359.679 409.502 359.299 407.539 359.299 405.284C359.299 403.029 359.679 401.079 360.439 399.432C361.224 397.76 362.288 396.493 363.631 395.632C364.974 394.745 366.481 394.302 368.153 394.302ZM374.081 405.284C374.081 404.144 373.79 403.257 373.207 402.624C372.624 401.991 371.877 401.674 370.965 401.674C370.053 401.674 369.306 401.991 368.723 402.624C368.14 403.257 367.849 404.144 367.849 405.284C367.849 406.424 368.14 407.311 368.723 407.944C369.306 408.577 370.053 408.894 370.965 408.894C371.877 408.894 372.624 408.577 373.207 407.944C373.79 407.311 374.081 406.424 374.081 405.284ZM407.015 405.094C407.015 405.677 406.977 406.234 406.901 406.766H393.335C393.462 408.615 394.235 409.54 395.653 409.54C396.565 409.54 397.224 409.122 397.629 408.286H406.559C406.255 409.806 405.609 411.174 404.621 412.39C403.659 413.581 402.43 414.531 400.935 415.24C399.466 415.924 397.845 416.266 396.071 416.266C393.943 416.266 392.043 415.823 390.371 414.936C388.725 414.049 387.433 412.783 386.495 411.136C385.583 409.464 385.127 407.513 385.127 405.284C385.127 403.055 385.583 401.117 386.495 399.47C387.433 397.798 388.725 396.519 390.371 395.632C392.043 394.745 393.943 394.302 396.071 394.302C398.199 394.302 400.087 394.745 401.733 395.632C403.405 396.493 404.697 397.735 405.609 399.356C406.547 400.977 407.015 402.89 407.015 405.094ZM398.465 403.08C398.465 402.371 398.237 401.839 397.781 401.484C397.325 401.104 396.755 400.914 396.071 400.914C394.577 400.914 393.703 401.636 393.449 403.08H398.465ZM438.297 394.416C441.033 394.416 443.149 395.239 444.643 396.886C446.163 398.533 446.923 400.762 446.923 403.574V416H438.525V404.638C438.525 403.726 438.247 403.017 437.689 402.51C437.157 401.978 436.435 401.712 435.523 401.712C434.586 401.712 433.851 401.978 433.319 402.51C432.787 403.017 432.521 403.726 432.521 404.638V416H424.123V404.638C424.123 403.726 423.845 403.017 423.287 402.51C422.755 401.978 422.033 401.712 421.121 401.712C420.184 401.712 419.449 401.978 418.917 402.51C418.385 403.017 418.119 403.726 418.119 404.638V416H409.683V394.568H418.119V397.456C418.727 396.544 419.551 395.809 420.589 395.252C421.653 394.695 422.895 394.416 424.313 394.416C425.859 394.416 427.227 394.758 428.417 395.442C429.608 396.101 430.558 397.038 431.267 398.254C432.053 397.139 433.053 396.227 434.269 395.518C435.485 394.783 436.828 394.416 438.297 394.416ZM471.326 405.094C471.326 405.677 471.288 406.234 471.212 406.766H457.646C457.772 408.615 458.545 409.54 459.964 409.54C460.876 409.54 461.534 409.122 461.94 408.286H470.87C470.566 409.806 469.92 411.174 468.932 412.39C467.969 413.581 466.74 414.531 465.246 415.24C463.776 415.924 462.155 416.266 460.382 416.266C458.254 416.266 456.354 415.823 454.682 414.936C453.035 414.049 451.743 412.783 450.806 411.136C449.894 409.464 449.438 407.513 449.438 405.284C449.438 403.055 449.894 401.117 450.806 399.47C451.743 397.798 453.035 396.519 454.682 395.632C456.354 394.745 458.254 394.302 460.382 394.302C462.51 394.302 464.397 394.745 466.044 395.632C467.716 396.493 469.008 397.735 469.92 399.356C470.857 400.977 471.326 402.89 471.326 405.094ZM462.776 403.08C462.776 402.371 462.548 401.839 462.092 401.484C461.636 401.104 461.066 400.914 460.382 400.914C458.887 400.914 458.013 401.636 457.76 403.08H462.776ZM489.004 394.416C491.461 394.416 493.374 395.239 494.742 396.886C496.135 398.533 496.832 400.762 496.832 403.574V416H488.434V404.638C488.434 403.625 488.155 402.827 487.598 402.244C487.066 401.636 486.344 401.332 485.432 401.332C484.494 401.332 483.76 401.636 483.228 402.244C482.696 402.827 482.43 403.625 482.43 404.638V416H473.994V394.568H482.43V397.836C483.088 396.823 483.962 395.999 485.052 395.366C486.166 394.733 487.484 394.416 489.004 394.416ZM513.828 408.818V416H510.636C504.759 416 501.82 413.074 501.82 407.222V401.598H499.16V394.568H501.82V389.4H510.256V394.568H513.752V401.598H510.256V407.374C510.256 407.881 510.37 408.248 510.598 408.476C510.851 408.704 511.257 408.818 511.814 408.818H513.828ZM534.024 416.266C530.806 416.266 528.146 415.519 526.044 414.024C523.966 412.504 522.839 410.287 522.662 407.374H531.63C531.756 408.919 532.44 409.692 533.682 409.692C534.138 409.692 534.518 409.591 534.822 409.388C535.151 409.16 535.316 408.818 535.316 408.362C535.316 407.729 534.974 407.222 534.29 406.842C533.606 406.437 532.542 405.981 531.098 405.474C529.375 404.866 527.944 404.271 526.804 403.688C525.689 403.105 524.726 402.257 523.916 401.142C523.105 400.027 522.712 398.596 522.738 396.848C522.738 395.1 523.181 393.618 524.068 392.402C524.98 391.161 526.208 390.223 527.754 389.59C529.324 388.957 531.085 388.64 533.036 388.64C536.329 388.64 538.938 389.4 540.864 390.92C542.814 392.44 543.84 394.581 543.942 397.342H534.86C534.834 396.582 534.644 396.037 534.29 395.708C533.935 395.379 533.504 395.214 532.998 395.214C532.643 395.214 532.352 395.341 532.124 395.594C531.896 395.822 531.782 396.151 531.782 396.582C531.782 397.19 532.111 397.697 532.77 398.102C533.454 398.482 534.53 398.951 536 399.508C537.697 400.141 539.09 400.749 540.18 401.332C541.294 401.915 542.257 402.725 543.068 403.764C543.878 404.803 544.284 406.107 544.284 407.678C544.284 409.325 543.878 410.807 543.068 412.124C542.257 413.416 541.079 414.429 539.534 415.164C537.988 415.899 536.152 416.266 534.024 416.266ZM571.454 394.568L557.736 426.26H548.502L553.898 414.936L544.968 394.568H554.354L558.382 405.436L562.144 394.568H571.454ZM582.502 416.266C580.476 416.266 578.677 415.937 577.106 415.278C575.561 414.619 574.332 413.707 573.42 412.542C572.508 411.377 571.989 410.059 571.862 408.59H579.956C580.058 409.223 580.324 409.692 580.754 409.996C581.21 410.3 581.78 410.452 582.464 410.452C582.895 410.452 583.237 410.363 583.49 410.186C583.744 409.983 583.87 409.743 583.87 409.464C583.87 408.983 583.604 408.641 583.072 408.438C582.54 408.235 581.641 408.007 580.374 407.754C578.829 407.45 577.55 407.121 576.536 406.766C575.548 406.411 574.674 405.803 573.914 404.942C573.18 404.081 572.812 402.89 572.812 401.37C572.812 400.053 573.154 398.862 573.838 397.798C574.548 396.709 575.586 395.86 576.954 395.252C578.322 394.619 579.982 394.302 581.932 394.302C584.82 394.302 587.075 395.011 588.696 396.43C590.343 397.849 591.331 399.698 591.66 401.978H584.174C584.048 401.395 583.782 400.952 583.376 400.648C582.971 400.319 582.426 400.154 581.742 400.154C581.312 400.154 580.982 400.243 580.754 400.42C580.526 400.572 580.412 400.813 580.412 401.142C580.412 401.573 580.678 401.902 581.21 402.13C581.742 402.333 582.591 402.548 583.756 402.776C585.302 403.08 586.606 403.422 587.67 403.802C588.734 404.182 589.659 404.841 590.444 405.778C591.23 406.69 591.622 407.957 591.622 409.578C591.622 410.845 591.255 411.985 590.52 412.998C589.786 414.011 588.722 414.809 587.328 415.392C585.96 415.975 584.352 416.266 582.502 416.266ZM608.308 408.818V416H605.116C599.239 416 596.3 413.074 596.3 407.222V401.598H593.64V394.568H596.3V389.4H604.736V394.568H608.232V401.598H604.736V407.374C604.736 407.881 604.85 408.248 605.078 408.476C605.332 408.704 605.737 408.818 606.294 408.818H608.308ZM632.269 405.094C632.269 405.677 632.231 406.234 632.155 406.766H618.589C618.716 408.615 619.488 409.54 620.907 409.54C621.819 409.54 622.478 409.122 622.883 408.286H631.813C631.509 409.806 630.863 411.174 629.875 412.39C628.912 413.581 627.684 414.531 626.189 415.24C624.72 415.924 623.098 416.266 621.325 416.266C619.197 416.266 617.297 415.823 615.625 414.936C613.978 414.049 612.686 412.783 611.749 411.136C610.837 409.464 610.381 407.513 610.381 405.284C610.381 403.055 610.837 401.117 611.749 399.47C612.686 397.798 613.978 396.519 615.625 395.632C617.297 394.745 619.197 394.302 621.325 394.302C623.453 394.302 625.34 394.745 626.987 395.632C628.659 396.493 629.951 397.735 630.863 399.356C631.8 400.977 632.269 402.89 632.269 405.094ZM623.719 403.08C623.719 402.371 623.491 401.839 623.035 401.484C622.579 401.104 622.009 400.914 621.325 400.914C619.83 400.914 618.956 401.636 618.703 403.08H623.719ZM663.551 394.416C666.287 394.416 668.402 395.239 669.897 396.886C671.417 398.533 672.177 400.762 672.177 403.574V416H663.779V404.638C663.779 403.726 663.5 403.017 662.943 402.51C662.411 401.978 661.689 401.712 660.777 401.712C659.84 401.712 659.105 401.978 658.573 402.51C658.041 403.017 657.775 403.726 657.775 404.638V416H649.377V404.638C649.377 403.726 649.098 403.017 648.541 402.51C648.009 401.978 647.287 401.712 646.375 401.712C645.438 401.712 644.703 401.978 644.171 402.51C643.639 403.017 643.373 403.726 643.373 404.638V416H634.937V394.568H643.373V397.456C643.981 396.544 644.804 395.809 645.843 395.252C646.907 394.695 648.148 394.416 649.567 394.416C651.112 394.416 652.48 394.758 653.671 395.442C654.862 396.101 655.812 397.038 656.521 398.254C657.306 397.139 658.307 396.227 659.523 395.518C660.739 394.783 662.082 394.416 663.551 394.416Z" fill="url(#paint1_linear)"/>
<defs>
<linearGradient id="paint0_linear" x1="380.75" y1="4.5" x2="380.75" y2="228" gradientUnits="userSpaceOnUse">
<stop offset="0.135417" stop-color="#FF0000"/>
<stop offset="1" stop-color="#800000"/>
</linearGradient>
<linearGradient id="paint1_linear" x1="339" y1="377.5" x2="339" y2="448" gradientUnits="userSpaceOnUse">
<stop stop-color="#42FF00"/>
<stop offset="1" stop-color="#228400"/>
</linearGradient>
</defs>
</svg>
