<svg width="156" height="37" viewBox="0 0 156 37" fill="none" xmlns="http://www.w3.org/2000/svg">
<path d="M24.8014 30.8639H13.4734L11.7934 35.9999H0.609375L13.0414 2.01594H25.3294L37.7134 35.9999H26.4814L24.8014 30.8639ZM22.2094 22.8479L19.1374 13.3919L16.0654 22.8479H22.2094ZM80.9824 2.01594V35.9999H70.3744V19.0559L65.1424 35.9999H56.0224L50.7904 19.0559V35.9999H40.1344V2.01594H53.1904L60.6784 22.4159L67.9744 2.01594H80.9824ZM99.0866 36.3359C95.0226 36.3359 91.6626 35.3919 89.0066 33.5039C86.3826 31.5839 84.9586 28.7839 84.7346 25.1039H96.0626C96.2226 27.0559 97.0866 28.0319 98.6546 28.0319C99.2306 28.0319 99.7106 27.9039 100.095 27.6479C100.511 27.3599 100.719 26.9279 100.719 26.3519C100.719 25.5519 100.287 24.9119 99.4226 24.4319C98.5586 23.9199 97.2146 23.3439 95.3906 22.7039C93.2146 21.9359 91.4066 21.1839 89.9666 20.4479C88.5586 19.7119 87.3426 18.6399 86.3186 17.2319C85.2946 15.8239 84.7986 14.0159 84.8306 11.8079C84.8306 9.59994 85.3906 7.72794 86.5106 6.19194C87.6626 4.62394 89.2146 3.43994 91.1666 2.63994C93.1506 1.83994 95.3746 1.43994 97.8386 1.43994C101.999 1.43994 105.295 2.39994 107.727 4.31994C110.191 6.23994 111.487 8.94394 111.615 12.4319H100.143C100.111 11.4719 99.8706 10.7839 99.4226 10.3679C98.9746 9.95194 98.4306 9.74394 97.7906 9.74394C97.3426 9.74394 96.9746 9.90394 96.6866 10.2239C96.3986 10.5119 96.2546 10.9279 96.2546 11.4719C96.2546 12.2399 96.6706 12.8799 97.5026 13.3919C98.3666 13.8719 99.7266 14.4639 101.583 15.1679C103.727 15.9679 105.487 16.7359 106.863 17.4719C108.271 18.2079 109.487 19.2319 110.511 20.5439C111.535 21.8559 112.047 23.5039 112.047 25.4879C112.047 27.5679 111.535 29.4399 110.511 31.1039C109.487 32.7359 107.999 34.0159 106.047 34.9439C104.095 35.8719 101.775 36.3359 99.0866 36.3359Z" fill="black"/>
<path d="M132.058 31L122 16.7808L132.058 25.4877L153 3L132.058 31Z" fill="#C4C4C4" stroke="url(#paint0_linear)" stroke-width="6"/>
<defs>
<linearGradient id="paint0_linear" x1="137.5" y1="3" x2="137.5" y2="31" gradientUnits="userSpaceOnUse">
<stop offset="0.135417" stop-color="#FF0000"/>
<stop offset="1" stop-color="#800000"/>
</linearGradient>
</defs>
</svg>
